<svg width="89" height="89" viewBox="0 0 89 89" fill="none" xmlns="http://www.w3.org/2000/svg">
<rect x="0.199951" width="88.2" height="88.2" rx="44.1" fill="#00FE84"/>
<g clip-path="url(#clip0_239_2371)">
<path d="M71.6191 40.9063L66.5733 33.3376H55.7745L56.4783 28.8094H51.871C51.3959 24.0143 47.3396 20.2563 42.4217 20.2563C37.5037 20.2563 33.4474 24.0143 32.9723 28.8094H21.2903V30.6962H32.9722C33.4473 35.4913 37.5036 39.2493 42.4215 39.2493C47.3395 39.2493 51.3958 35.4913 51.8708 30.6962H54.2757L50.7954 53.0852H33.1726C29.7162 47.7151 21.9124 47.7278 18.4641 53.0852H12.8V58.7454H17.1283C17.6004 63.1234 21.3169 66.5438 25.8184 66.5438C30.3199 66.5438 34.0365 63.1234 34.5085 58.7454H52.4728C52.9449 63.1234 56.6615 66.5438 61.1629 66.5438C65.6644 66.5438 69.381 63.1234 69.853 58.7454H77.2001C77.2001 57.0132 77.2001 48.4109 77.2001 46.9848C77.2001 43.7959 74.7408 41.1707 71.6191 40.9063ZM42.4215 37.3626C38.2255 37.3626 34.8118 33.9487 34.8118 29.7528C34.8118 25.5569 38.2255 22.143 42.4215 22.143C46.6176 22.143 50.0313 25.5569 50.0313 29.7528C50.0313 33.9487 46.6176 37.3626 42.4215 37.3626ZM17.1283 56.8587H14.6868V54.9719H17.5494C17.3426 55.5743 17.1987 56.2055 17.1283 56.8587ZM25.8184 64.6571C22.0386 64.6571 18.9633 61.582 18.9633 57.802C18.9633 54.022 22.0386 50.9469 25.8184 50.9469C29.5983 50.9469 32.6735 54.022 32.6735 57.802C32.6735 61.582 29.5983 64.6571 25.8184 64.6571ZM59.9497 35.2243H65.5636L69.3371 40.8844H59.0063L59.9497 35.2243ZM52.4728 56.8587H34.5085C34.4381 56.2055 34.2942 55.5743 34.0874 54.9719H52.894C52.6872 55.5743 52.5433 56.2055 52.4728 56.8587ZM61.1629 64.6571C57.3831 64.6571 54.3079 61.582 54.3079 57.802C54.3079 54.022 57.3831 50.9469 61.1629 50.9469C64.9428 50.9469 68.018 54.022 68.018 57.802C68.018 61.582 64.9428 64.6571 61.1629 64.6571ZM75.3133 56.8587H69.853C69.7826 56.2055 69.6387 55.5743 69.4319 54.9719H75.3133V56.8587ZM75.3133 53.0852H68.5171C65.0608 47.7151 57.2569 47.7278 53.8086 53.0852H52.7048L55.481 35.2243H58.0366L56.7788 42.7712H71.0995C73.0986 42.7712 74.7757 44.171 75.2054 46.0415H71.8543C70.2938 46.0415 69.0243 47.3111 69.0243 48.8716C69.0243 50.432 70.2938 51.7016 71.8543 51.7016H75.3133V53.0852ZM75.3133 49.8149H71.8543C70.6058 49.8149 70.6071 47.9282 71.8543 47.9282H75.3133V49.8149Z" fill="black"/>
<path d="M14.7498 33.589H16.6365V35.4757H14.7498V33.589Z" fill="black"/>
<path d="M18.5232 33.589H26.9505V35.4757H18.5232V33.589Z" fill="black"/>
<path d="M18.6489 38.1801H20.5356V40.0668H18.6489V38.1801Z" fill="black"/>
<path d="M22.4224 38.1801H33.2396V40.0668H22.4224V38.1801Z" fill="black"/>
<path d="M16.7622 42.7711H27.5794V44.6578H16.7622V42.7711Z" fill="black"/>
<path d="M12.9888 42.7711H14.8755V44.6578H12.9888V42.7711Z" fill="black"/>
<path d="M25.8184 54.9718C24.2578 54.9718 22.9883 56.2415 22.9883 57.8019C22.9883 59.3624 24.2578 60.632 25.8184 60.632C27.3789 60.632 28.6484 59.3624 28.6484 57.8019C28.6484 56.2415 27.3789 54.9718 25.8184 54.9718ZM24.875 57.8019C24.875 56.5534 26.7617 56.5547 26.7617 57.8019C26.7617 58.3221 24.875 59.0492 24.875 57.8019Z" fill="black"/>
<path d="M61.1628 54.9718C59.6023 54.9718 58.3328 56.2415 58.3328 57.8019C58.3328 59.3624 59.6023 60.632 61.1628 60.632C62.7234 60.632 63.9929 59.3624 63.9929 57.8019C63.9929 56.2415 62.7234 54.9718 61.1628 54.9718ZM61.1628 58.7453C59.9143 58.7453 59.9156 56.8586 61.1628 56.8586C62.4113 56.8586 62.4101 58.7453 61.1628 58.7453Z" fill="black"/>
<path d="M43.4907 24.3441H41.604V31.1992H46.0692V29.3125H43.4907V24.3441Z" fill="black"/>
</g>
<defs>
<clipPath id="clip0_239_2371">
<rect width="64.4" height="64.4" fill="white" transform="translate(12.8 11.2)"/>
</clipPath>
</defs>
</svg>
