<svg width="50" height="50" viewBox="0 0 50 50" fill="none" xmlns="http://www.w3.org/2000/svg">
<path d="M49.974 44.5026L45.5367 9.42408H37.3555C36.3849 4.05759 31.2543 0 25.0144 0C18.7745 0 13.6439 4.05759 12.6732 9.42408H4.49201L0.0547372 44.5026C-0.222592 46.466 0.609396 47.644 1.30272 48.4293C1.99604 49.0838 3.24402 50 5.60132 50H44.4274C46.2301 50 47.7554 49.4764 48.726 48.2984C49.6967 47.3822 50.1127 45.9424 49.974 44.5026ZM25.0144 5.2356C28.065 5.2356 30.6996 7.06806 31.5316 9.42408H18.3585C19.3291 6.93717 21.9637 5.2356 25.0144 5.2356ZM5.60132 44.7644L9.48393 14.6597H12.5346V18.5864C12.5346 20.0262 13.7825 21.2042 15.3078 21.2042C16.8332 21.2042 18.0811 20.0262 18.0811 18.5864V14.6597H31.9476V18.5864C31.9476 20.0262 33.1956 21.2042 34.7209 21.2042C36.2462 21.2042 37.4942 20.0262 37.4942 18.5864V14.6597H40.5448L44.4274 44.7644H5.60132Z" fill="black"/>
</svg>
