<svg width="50" height="50" viewBox="0 0 50 50" fill="none" xmlns="http://www.w3.org/2000/svg">
<path fill-rule="evenodd" clip-rule="evenodd" d="M25.6924 9.09892C25.2366 8.99535 24.7634 8.99535 24.3075 9.09892C23.8659 9.19927 23.4086 9.45575 21.7537 10.49L20.7668 11.1068L33.5069 18.7509L37.5644 16.3164C37.3746 16.1959 37.1589 16.0604 36.9129 15.9067L28.2461 10.49C26.5914 9.45575 26.1341 9.19927 25.6924 9.09892ZM29.8626 20.9375L17.1968 13.3381L13.087 15.9067C12.841 16.0604 12.6253 16.1959 12.4354 16.3164L24.9999 23.8551L29.8626 20.9375ZM10.2083 21.1007C10.2083 20.2824 10.2127 19.746 10.2303 19.3665L23.1249 27.1032V40.3504C22.7852 40.1509 22.3462 39.8802 21.7537 39.5099L13.087 34.0934C11.6118 33.1714 11.2274 32.9072 10.9604 32.5957C10.685 32.2742 10.4778 31.9004 10.3512 31.4964C10.2286 31.1049 10.2083 30.6389 10.2083 28.8994V21.1007ZM28.2461 39.5099C27.6536 39.8804 27.2146 40.1509 26.8749 40.3504V27.1032L39.7696 19.3665C39.7871 19.746 39.7916 20.2824 39.7916 21.1006V28.8994C39.7916 30.6389 39.7714 31.1049 39.6486 31.4964C39.5221 31.9004 39.3149 32.2742 39.0394 32.5957C38.7724 32.9072 38.3881 33.1714 36.9129 34.0934L28.2461 39.5099ZM23.4766 5.44215C24.4794 5.21427 25.5206 5.21427 26.5234 5.44215C27.6646 5.70152 28.6926 6.34507 30.0014 7.16465L30.2336 7.31002L38.9004 12.7267L39.1064 12.8553C40.2774 13.586 41.1981 14.1604 41.8869 14.9642C42.4926 15.6711 42.9486 16.4938 43.2271 17.3822C43.5436 18.3923 43.5426 19.4774 43.5416 20.8578V21.1006V28.8994V29.1422C43.5426 30.5227 43.5436 31.6077 43.2271 32.6179C42.9486 33.5062 42.4926 34.3289 41.8869 35.0359C41.1981 35.8397 40.2774 36.4139 39.1064 37.1447L38.9004 37.2734L30.2336 42.6899L30.0014 42.8354C28.6926 43.6549 27.6646 44.2984 26.5234 44.5579C25.5206 44.7857 24.4794 44.7857 23.4766 44.5579C22.3352 44.2984 21.3075 43.6549 19.9986 42.8354L19.7662 42.6899L11.0995 37.2734L10.8936 37.1447C9.72235 36.4139 8.80178 35.8397 8.11298 35.0359C7.50713 34.3289 7.05118 33.5062 6.77278 32.6177C6.45628 31.6077 6.45708 30.5227 6.45813 29.1422L6.45825 28.8994V21.1007L6.45813 20.8578C6.45708 19.4774 6.45628 18.3923 6.77278 17.3822C7.05118 16.4938 7.50713 15.6711 8.11298 14.9642C8.80178 14.1604 9.72235 13.586 10.8935 12.8553L11.0995 12.7267L19.7663 7.31L19.9986 7.16462C21.3075 6.34505 22.3352 5.7015 23.4766 5.44215Z" fill="#2F2D2E"/>
</svg>
