<svg width="50" height="50" viewBox="0 0 50 50" fill="none" xmlns="http://www.w3.org/2000/svg">
<path fill-rule="evenodd" clip-rule="evenodd" d="M34.659 12.159C35.5377 11.2803 36.9623 11.2803 37.841 12.159L45.341 19.659L42.159 22.841L38.5 19.182V26.5974C38.5 29.3151 38.5 31.4918 38.3563 33.2512C38.2087 35.0579 37.8983 36.6218 37.1648 38.0615C35.9903 40.3663 34.1164 42.2403 31.8115 43.4147C30.3719 44.1483 28.8079 44.4587 27.0012 44.6063C25.2417 44.75 23.065 44.75 20.3473 44.75H20V40.25H20.25C23.0874 40.25 25.0801 40.2482 26.6347 40.1212C28.1631 39.9963 29.0689 39.7617 29.7685 39.4052C31.2267 38.6622 32.4122 37.4767 33.1552 36.0185C33.5117 35.3189 33.7463 34.4131 33.8712 32.8847C33.9983 31.3301 34 29.3374 34 26.5V19.182L30.341 22.841L27.159 19.659L34.659 12.159Z" fill="#2F2D2E"/>
<path fill-rule="evenodd" clip-rule="evenodd" d="M15.6818 37.591C14.8031 38.4697 13.3785 38.4697 12.4998 37.591L4.99983 30.091L8.18181 26.909L11.8408 30.568L11.8408 23.1526C11.8408 20.4349 11.8408 18.2582 11.9845 16.4988C12.1322 14.6921 12.4425 13.1282 13.1761 11.6885C14.3505 9.38371 16.2245 7.50972 18.5293 6.33527C19.9689 5.60173 21.5329 5.29135 23.3396 5.14373C25.0991 4.99997 27.2758 4.99998 29.9935 5L30.3408 5L30.3408 9.5L30.0908 9.5C27.2534 9.5 25.2607 9.50175 23.7061 9.62878C22.1777 9.75366 21.2719 9.98831 20.5723 10.3448C19.1142 11.0878 17.9286 12.2733 17.1856 13.7315C16.8291 14.4311 16.5945 15.3369 16.4696 16.8653C16.3426 18.4199 16.3408 20.4126 16.3408 23.25L16.3408 30.568L19.9998 26.909L23.1818 30.091L15.6818 37.591Z" fill="#2F2D2E"/>
</svg>
