<svg width="50" height="50" viewBox="0 0 50 50" fill="none" xmlns="http://www.w3.org/2000/svg">
<path fill-rule="evenodd" clip-rule="evenodd" d="M16.0565 23.2465L24.9998 10.7259L33.9432 23.2465C39.1389 30.5207 33.9392 40.625 24.9998 40.625C16.0605 40.625 10.8607 30.5207 16.0565 23.2465ZM26.7062 6.66305C25.8699 5.49217 24.1297 5.49222 23.2935 6.66305L13.005 21.0668C6.03629 30.823 13.0104 44.375 24.9998 44.375C36.9892 44.375 43.9634 30.823 36.9947 21.0668L26.7062 6.66305ZM23.8738 35.026L33.1594 25.026L30.4117 22.4743L22.352 31.1538L18.7201 28.0408L16.2796 30.888L21.2796 35.1737L22.6477 36.3465L23.8738 35.026Z" fill="#2F2D2E"/>
</svg>
