<svg width="20" height="20" viewBox="0 0 20 20" fill="none" xmlns="http://www.w3.org/2000/svg">
<rect x="0.5" y="0.5" width="19" height="19" rx="9.5" fill="#141414"/>
<path d="M7.44007 14V12.892L10.0289 10.495C10.249 10.282 10.4337 10.0902 10.5828 9.91974C10.7343 9.74929 10.8492 9.58239 10.9273 9.41903C11.0054 9.25331 11.0445 9.07457 11.0445 8.88281C11.0445 8.66974 10.9959 8.48627 10.8989 8.33239C10.8018 8.17614 10.6692 8.05658 10.5012 7.97372C10.3331 7.88849 10.1425 7.84588 9.92942 7.84588C9.70688 7.84588 9.51275 7.89086 9.34703 7.98082C9.18132 8.07079 9.05347 8.19981 8.96351 8.3679C8.87355 8.53598 8.82857 8.73603 8.82857 8.96804H7.36905C7.36905 8.49219 7.47677 8.07907 7.69221 7.72869C7.90764 7.37831 8.20949 7.10724 8.59775 6.91548C8.986 6.72372 9.43345 6.62784 9.94007 6.62784C10.4609 6.62784 10.9143 6.72017 11.3002 6.90483C11.6884 7.08712 11.9903 7.34044 12.2057 7.66477C12.4211 7.98911 12.5289 8.3608 12.5289 8.77983C12.5289 9.05445 12.4744 9.32552 12.3655 9.59304C12.259 9.86056 12.0684 10.1577 11.7938 10.4844C11.5191 10.8087 11.1321 11.1982 10.6325 11.6527L9.57076 12.6932V12.7429H12.6247V14H7.44007Z" fill="white"/>
<rect x="0.5" y="0.5" width="19" height="19" rx="9.5" stroke="#141414"/>
</svg>
