<svg width="50" height="50" viewBox="0 0 50 50" fill="none" xmlns="http://www.w3.org/2000/svg">
<path d="M25 19.768C27.5958 19.7549 30.1283 19.1641 32.2782 18.0701C34.4281 16.9761 36.099 15.4279 37.0803 13.6207C38.0617 11.8134 38.3094 9.8282 37.7923 7.91526C37.2752 6.00232 36.0165 4.24735 34.1748 2.87166C32.3331 1.49597 29.991 0.561165 27.4438 0.185129C24.8965 -0.190906 22.2583 0.0086681 19.8617 0.758683C17.4651 1.5087 15.4174 2.77557 13.977 4.39954C12.5366 6.0235 11.7679 7.93184 11.7678 9.8839C11.7701 11.187 12.1146 12.4769 12.7815 13.6797C13.4484 14.8824 14.4245 15.9743 15.654 16.8927C16.8834 17.811 18.3418 18.5377 19.9457 19.0312C21.5495 19.5246 23.2672 19.775 25 19.768ZM25 5.29342C26.1992 5.3065 27.3665 5.58569 28.3554 6.09593C29.3444 6.60618 30.1108 7.32475 30.5585 8.16142C31.0062 8.9981 31.1153 9.91559 30.872 10.7987C30.6287 11.6818 30.0439 12.4912 29.191 13.1253C28.3381 13.7593 27.2551 14.1898 26.078 14.3626C24.9009 14.5354 23.6821 14.4428 22.5747 14.0965C21.4673 13.7503 20.5207 13.1657 19.8535 12.4162C19.1864 11.6667 18.8286 10.7858 18.825 9.8839C18.8273 9.2777 18.9892 8.67783 19.3014 8.11894C19.6136 7.56005 20.07 7.05319 20.6441 6.62764C21.2182 6.20208 21.8987 5.86624 22.6463 5.63952C23.394 5.4128 24.1939 5.29968 25 5.30669V5.29342ZM25 21.851C21.7117 21.8527 18.4561 22.3419 15.4194 23.2906C12.3827 24.2394 9.62449 25.6289 7.30257 27.3799C4.98065 29.1309 3.14054 31.209 1.88751 33.4952C0.634478 35.7814 -0.00690178 38.231 5.60075e-05 40.7038C5.60075e-05 42.5745 1.16449 46.0107 9.01556 48.2131C14.1715 49.4816 19.5765 50.0827 25 49.9909C36.5384 49.9909 49.9999 47.5497 49.9999 40.7038C50.0069 38.231 49.3655 35.7814 48.1125 33.4952C46.8595 31.209 45.0194 29.1309 42.6974 27.3799C40.3755 25.6289 37.6173 24.2394 34.5806 23.2906C31.5439 22.3419 28.2883 21.8527 25 21.851ZM25 44.684C13.885 44.684 7.0572 42.3357 7.0572 40.7038C6.98184 38.8972 7.38995 37.0976 8.2573 35.4118C9.12466 33.7261 10.4336 32.1886 12.1063 30.8906C13.7791 29.5926 15.7816 28.5606 17.995 27.8559C20.2084 27.1511 22.5875 26.7879 24.9912 26.7879C27.3948 26.7879 29.7739 27.1511 31.9873 27.8559C34.2007 28.5606 36.2032 29.5926 37.876 30.8906C39.5488 32.1886 40.8577 33.7261 41.7251 35.4118C42.5924 37.0976 43.0005 38.8972 42.9252 40.7038C42.9428 42.3357 36.115 44.684 25 44.684Z" fill="black"/>
</svg>
