<svg width="50" height="50" viewBox="0 0 50 50" fill="none" xmlns="http://www.w3.org/2000/svg">
<path d="M49.1703 45.0635L35.3434 31.2412C41.1281 23.6248 40.4227 12.6234 33.5092 5.71227C25.8903 -1.90409 13.4742 -1.90409 5.7142 5.71227C-1.90473 13.3286 -1.90473 25.7405 5.7142 33.4979C9.38257 37.165 14.3208 39.2807 19.5411 39.2807C23.7739 39.2807 27.8655 37.8702 31.2517 35.3315L45.0787 49.1537C45.643 49.7179 46.3485 50 47.0539 50C47.7594 50 48.4649 49.7179 49.0292 49.1537C50.299 47.8843 50.299 46.1918 49.1703 45.0635ZM19.6822 33.4979C16.0139 33.4979 12.4866 32.0874 9.80584 29.4076C4.30328 23.9069 4.30328 15.1622 9.80584 9.66149C12.4866 6.98166 16.155 5.57123 19.6822 5.57123C23.2095 5.57123 26.8779 6.98166 29.5586 9.66149C35.0612 15.1622 35.0612 23.9069 29.5586 29.4076C26.8779 32.0874 23.3506 33.4979 19.6822 33.4979Z" fill="black"/>
</svg>
